#!OML:ASF H:\LiuWeirdWalks\Patient Classification 1\Patient 1\Session 1\male.ASF
:FULLY-SPECIFIED
:DEGREES
327
root 0.481609 17.7817 -9.46845 3.35628 -0.965971 5.92223
lowerback 5.56899 -13.097 -12.2699
upperback -1.79957 -18.3004 6.64504
thorax 1.01286 -9.32369 13.7077
lowerneck -8.98733 8.35714 10.969
upperneck 15.0766 11.4229 -10.2962
head 7.32799 5.32488 -4.01994
rclavicle -1.21457e-013 -2.38542e-014
rhumerus -61.6777 -16.1145 -17.1064
rradius 36.9428
rwrist -4.42955
rhand -10.1061 6.90626
rfingers 7.12502
rthumb 15.8815 -22.4625
lclavicle -1.21457e-013 -2.38542e-014
lhumerus 10.8945 -4.10745 79.1665
lradius 46.2696
lwrist 27.3451
lhand -19.7257 -6.29886
lfingers 7.12502
lthumb 6.60458 23.5781
rfemur -32.4539 -1.59084 13.5055
rtibia 35.768
rfoot -3.89279 -6.60463
rtoes -8.99458
lfemur 27.9905 0.863796 -28.1894
ltibia 9.54166e-015
lfoot 12.2459 2.40071
ltoes -25.4563
328
root 0.470168 17.8146 -9.29549 3.41803 -0.893761 5.75822
lowerback 5.49919 -13.0846 -12.1839
upperback -1.77902 -18.2707 6.71308
thorax 1.06152 -9.31609 13.72
lowerneck -8.96387 8.39903 10.9482
upperneck 15.0857 11.485 -10.2844
head 7.3319 5.35505 -4.00597
rclavicle -4.01545e-014 1.74931e-014
rhumerus -61.5417 -16.0891 -17.5511
rradius 37.3083
rwrist -4.65435
rhand -9.85195 7.11956
rfingers 7.12502
rthumb 16.1262 -22.2295
lclavicle -4.01545e-014 1.74931e-014
lhumerus 11.106 -4.78008 79.566
lradius 46.1961
lwrist 27.0355
lhand -19.2932 -6.40358
lfingers 7.12502
lthumb 7.02218 23.4599
rfemur -31.8305 -1.73618 13.7932
rtibia 35.7319
rfoot -4.15382 -6.78366
rtoes -8.2872
lfemur 25.7933 0.787763 -27.9714
ltibia 4.59505
lfoot 12.1711 2.58159
ltoes -24.4555
329
root 0.45845 17.8468 -9.1235 3.46243 -0.823293 5.58829
lowerback 5.45092 -13.0555 -12.0896
upperback -1.76837 -18.2204 6.77592
thorax 1.07676 -9.29459 13.7339
lowerneck -8.94561 8.43844 10.9103
upperneck 15.1136 11.5476 -10.2732
head 7.34183 5.38401 -3.98924
rclavicle 1.01579e-013 -3.18055e-014
rhumerus -61.3636 -15.9806 -18.0966
rradius 37.7124
rwrist -4.98928
rhand -9.58214 7.32107
rfingers 7.12502
rthumb 16.386 -22.0068
lclavicle 1.01579e-013 -3.18055e-014
lhumerus 11.2455 -5.4609 79.9405
lradius 46.1217
lwrist 26.6838
lhand -18.8224 -6.46629
lfingers 7.12502
lthumb 7.47656 23.3816
rfemur -31.1657 -1.7983 14.0729
rtibia 35.6537
rfoot -4.38199 -7.03018
rtoes -7.62185
lfemur 23.3695 0.719221 -27.7299
ltibia 9.63522
lfoot 11.9596 2.86862
ltoes -23.1473
330
root 0.446605 17.8784 -8.95269 3.48714 -0.761918 5.39962
lowerback 5.40466 -13.0062 -11.9604
upperback -1.75363 -18.1402 6.82307
thorax 1.06981 -9.25542 13.7189
lowerneck -8.91602 8.4758 10.8772
upperneck 15.1404 11.6099 -10.2745
head 7.35041 5.41252 -3.97787
rclavicle -4.65156e-014 4.77083e-015
rhumerus -61.1772 -15.8657 -18.6908
rradius 38.1353
rwrist -5.30188
rhand -9.33984 7.51881
rfingers 7.12502
rthumb 16.6193 -21.7896
lclavicle -4.65156e-014 4.77083e-015
lhumerus 11.3182 -6.14745 80.2833
lradius 46.0635
lwrist 26.2835
lhand -18.3599 -6.48649
lfingers 7.12502
lthumb 7.923 23.345
rfemur -30.4612 -1.8043 14.3644
rtibia 35.5369
rfoot -4.60303 -7.32582
rtoes -7.01382
lfemur 21.7357 0.642239 -27.4476
ltibia 13.1305
lfoot 12.5173 2.95868
ltoes -21.5345
331
root 0.435509 17.9091 -8.7842 3.49343 -0.708817 5.20271
lowerback 5.38896 -12.9413 -11.8123
upperback -1.74577 -18.0406 6.86464
thorax 1.02515 -9.20278 13.7014
lowerneck -8.8818 8.50571 10.8328
upperneck 15.1895 11.6686 -10.2911
head 7.36518 5.43729 -3.97038
rclavicle 9.93923e-016 -7.95139e-015
rhumerus -60.9463 -15.7475 -19.3139
rradius 38.5493
rwrist -5.50637
rhand -9.13368 7.72145
rfingers 7.12502
rthumb 16.8178 -21.5702
lclavicle 9.93923e-016 -7.95139e-015
lhumerus 11.3014 -6.79659 80.6098
lradius 46.0571
lwrist 25.9052
lhand -17.9173 -6.50454
lfingers 7.12502
lthumb 8.35015 23.3104
rfemur -29.7228 -1.79641 14.6583
rtibia 35.3781
rfoot -4.82558 -7.62729
rtoes -6.45285
lfemur 20.3408 0.879672 -27.0186
ltibia 16.1571
lfoot 13.1881 2.69888
ltoes -19.8404
332
root 0.423958 17.9393 -8.61795 3.48611 -0.664303 4.97814
lowerback 5.38117 -12.8614 -11.6323
upperback -1.7336 -17.9189 6.8992
thorax 0.962188 -9.1373 13.6653
lowerneck -8.86525 8.53296 10.8185
upperneck 15.2579 11.7247 -10.3385
head 7.39286 5.45923 -3.97738
rclavicle -1.17283e-013 2.22639e-014
rhumerus -60.6774 -15.6514 -19.9684
rradius 38.9465
rwrist -5.64032
rhand -8.98463 7.90836
rfingers 7.12502
rthumb 16.9612 -21.3711
lclavicle -1.17283e-013 2.22639e-014
lhumerus 11.1991 -7.42164 80.8962
lradius 46.1114
lwrist 25.5176
lhand -17.4871 -6.54664
lfingers 7.12502
lthumb 8.76527 23.2513
rfemur -28.9565 -1.75743 14.9775
rtibia 35.1766
rfoot -5.04969 -7.93464
rtoes -5.99014
lfemur 19.0544 1.19773 -26.5175
ltibia 18.9617
lfoot 13.8782 2.39293
ltoes -18.1324
333
root 0.412271 17.9685 -8.45431 3.47336 -0.632744 4.70159
lowerback 5.38568 -12.7701 -11.4002
upperback -1.72135 -17.7791 6.94299
thorax 0.875224 -9.06101 13.619
lowerneck -8.86786 8.5637 10.8265
upperneck 15.3495 11.7901 -10.4272
head 7.43658 5.48265 -3.99961
rclavicle 4.69132e-014 -6.36111e-015
rhumerus -60.3425 -15.5703 -20.6531
rradius 39.3179
rwrist -5.73677
rhand -8.85615 8.09036
rfingers 7.12502
rthumb 17.0849 -21.1784
lclavicle 4.69132e-014 -6.36111e-015
lhumerus 11.0044 -7.98034 81.1594
lradius 46.2325
lwrist 25.0776
lhand -17.0824 -6.61323
lfingers 7.12502
lthumb 9.15583 23.168
rfemur -28.1741 -1.68786 15.3479
rtibia 34.9315
rfoot -5.28173 -8.23626
rtoes -5.62306
lfemur 17.8119 1.59125 -25.9257
ltibia 21.6499
lfoot 14.4592 2.13579
ltoes -16.6533
334
root 0.400615 17.9963 -8.29272 3.45641 -0.608132 4.38086
lowerback 5.3768 -12.6745 -11.1135
upperback -1.69835 -17.6277 6.98684
thorax 0.788252 -8.97915 13.541
lowerneck -8.87472 8.60839 10.8665
upperneck 15.4303 11.8757 -10.5518
head 7.48436 5.51467 -4.03607
rclavicle 1.55052e-013 -1.11319e-014
rhumerus -59.9368 -15.5391 -21.3723
rradius 39.6509
rwrist -5.74689
rhand -8.83215 8.23955
rfingers 7.12502
rthumb 17.108 -21.0272
lclavicle 1.55052e-013 -1.11319e-014
lhumerus 10.7256 -8.49788 81.367
lradius 46.4355
lwrist 24.6942
lhand -16.7163 -6.70237
lfingers 7.12502
lthumb 9.50905 23.0631
rfemur -27.3776 -1.59617 15.7614
rtibia 34.6455
rfoot -5.51063 -8.52777
rtoes -5.3806
lfemur 16.594 2.04682 -25.2564
ltibia 24.2607
lfoot 14.8386 2.05742
ltoes -15.5878
335
root 0.388507 18.0226 -8.13332 3.44254 -0.578739 4.02444
lowerback 5.36504 -12.5712 -10.792
upperback -1.67656 -17.4633 7.03862
thorax 0.691103 -8.89009 13.4544
lowerneck -8.87475 8.65825 10.924
upperneck 15.4971 11.9715 -10.7081
head 7.53091 5.55049 -4.08475
rclavicle 6.50026e-014 1.59028e-015
rhumerus -59.4658 -15.54 -22.1144
rradius 39.94
rwrist -5.69471
rhand -8.8984 8.36906
rfingers 7.12502
rthumb 17.0442 -20.9032
lclavicle 6.50026e-014 1.59028e-015
lhumerus 10.3628 -8.97512 81.5435
lradius 46.7106
lwrist 24.346
lhand -16.3779 -6.78916
lfingers 7.12502
lthumb 9.83561 22.9611
rfemur -26.5746 -1.46799 16.2095
rtibia 34.3228
rfoot -5.73797 -8.84225
rtoes -5.23164
lfemur 15.3786 2.53339 -24.5255
ltibia 26.8102
lfoot 14.9594 2.24245
ltoes -14.8541
336
root 0.376554 18.0471 -7.9748 3.425 -0.531901 3.64176
lowerback 5.32295 -12.4676 -10.4252
upperback -1.64258 -17.2923 7.08366
thorax 0.607557 -8.79882 13.3273
lowerneck -8.84015 8.71491 10.9944
upperneck 15.4986 12.076 -10.8817
head 7.55334 5.59208 -4.14141
rclavicle -1.3895e-013 -7.95139e-015
rhumerus -58.9395 -15.5967 -22.8859
rradius 40.1874
rwrist -5.56912
rhand -9.0367 8.48595
rfingers 7.12502
rthumb 16.9111 -20.7978
lclavicle -1.3895e-013 -7.95139e-015
lhumerus 9.92718 -9.42486 81.6754
lradius 47.0528
lwrist 24.0973
lhand -16.0936 -6.86525
lfingers 7.12502
lthumb 10.1099 22.8719
rfemur -25.7548 -1.32927 16.683
rtibia 33.971
rfoot -5.95779 -9.17046
rtoes -5.15663
lfemur 14.1777 3.01508 -23.7576
ltibia 29.2875
lfoot 14.7364 2.74677
ltoes -14.5513
337
root 0.364217 18.0697 -7.81759 3.40073 -0.461847 3.25819
lowerback 5.27537 -12.3594 -10.056
upperback -1.60461 -17.1148 7.12292
thorax 0.528308 -8.70457 13.1901
lowerneck -8.82191 8.75391 11.0232
upperneck 15.4817 12.1515 -11.0117
head 7.56393 5.62062 -4.18011
rclavicle 9.97899e-014 -2.38542e-014
rhumerus -58.3565 -15.6762 -23.6911
rradius 40.408
rwrist -5.47185
rhand -9.20165 8.56812
rfingers 7.12502
rthumb 16.7523 -20.7291
lclavicle 9.97899e-014 -2.38542e-014
lhumerus 9.43826 -9.89278 81.7532
lradius 47.4355
lwrist 23.9677
lhand -15.8855 -6.91009
lfingers 7.12502
lthumb 10.3106 22.8172
rfemur -24.9198 -1.15958 17.1566
rtibia 33.5974
rfoot -6.15294 -9.54978
rtoes -5.15676
lfemur 12.987 3.48375 -22.9758
ltibia 31.6794
lfoot 14.1976 3.53045
ltoes -14.3801
